<?xml version="1.0" encoding="UTF-8" standalone="no"?>
<!-- Created with Inkscape (http://www.inkscape.org/) -->

<svg
   width="67mm"
   height="91mm"
   viewBox="0 0 67 91"
   version="1.1"
   id="svg1"
   inkscape:version="1.3 (0e150ed6c4, 2023-07-21)"
   sodipodi:docname="cat_play.svg"
   xmlns:inkscape="http://www.inkscape.org/namespaces/inkscape"
   xmlns:sodipodi="http://sodipodi.sourceforge.net/DTD/sodipodi-0.dtd"
   xmlns="http://www.w3.org/2000/svg"
   xmlns:svg="http://www.w3.org/2000/svg">
  <sodipodi:namedview
     id="namedview1"
     pagecolor="#ffffff"
     bordercolor="#000000"
     borderopacity="0.25"
     inkscape:showpageshadow="2"
     inkscape:pageopacity="0.0"
     inkscape:pagecheckerboard="0"
     inkscape:deskcolor="#d1d1d1"
     inkscape:document-units="mm"
     inkscape:zoom="1.4022026"
     inkscape:cx="122.66416"
     inkscape:cy="99.486338"
     inkscape:window-width="1920"
     inkscape:window-height="1001"
     inkscape:window-x="-9"
     inkscape:window-y="-9"
     inkscape:window-maximized="1"
     inkscape:current-layer="layer1" />
  <defs
     id="defs1" />
  <g
     inkscape:label="Слой 1"
     inkscape:groupmode="layer"
     id="layer1">
    <g
       id="g8"
       transform="matrix(0.26458333,0,0,0.26458333,-7.1067407,-35.162072)">
      <path
         style="fill:#1d1d1b"
         d="m 113.036,442.838 c 0.131,-2.75 0.285,-5.471 0.595,-7.986 -10.039,-3.682 -31.18,-0.493 -27.236,8.671 2.706,6.287 17.432,-1.694 26.462,4.197 0.036,-1.64 0.103,-3.284 0.179,-4.882 z"
         id="path6" />
      <path
         style="fill:#1d1d1b"
         d="m 153.277,265.194 c -0.805,-1.028 -1.827,-2.23 -2.214,-2.23 -0.396,0 -1.023,1.624 -1.473,2.966 1.197,-0.331 2.456,-0.582 3.687,-0.736 z"
         id="path7" />
      <path
         style="fill:#1d1d1b"
         d="m 186.625,355.549 c -3.343,-11.436 -9.477,-40.703 -8.507,-57.104 0.154,-2.598 2.503,-12.451 3.718,-15.902 1.135,-3.227 8.53,-9.726 5.533,-17.881 -0.158,-0.429 -0.542,-0.745 -0.991,-0.835 -5.3,-1.072 -12.529,7.513 -16.202,5.599 -5.87,-2.905 -10.42,-3.688 -14.368,-3.509 -2.597,0.677 -5.642,1.541 -8.188,1.545 -2.531,0.716 -5.026,1.482 -7.767,1.841 -0.773,0.101 -1.495,0.461 -2.002,1.053 -7.105,8.294 2.212,19.512 -3.184,21.656 0,0 -11.829,0.449 -12.727,-2.546 -0.898,-2.995 -5.091,-15.872 -4.492,-25.155 0.599,-9.284 1.722,-11.679 2.321,-14.599 0.599,-2.92 -0.823,-5.091 -1.647,-5.166 -0.824,-0.075 3.893,-8.759 1.722,-10.332 -2.171,-1.572 -4.118,0.374 -4.118,0.374 0,0 0.599,-7.487 -3.369,-6.738 -3.968,0.749 -3.893,5.166 -3.893,5.166 0,0 -2.471,-3.668 -4.717,-2.545 -2.246,1.123 -1.497,6.888 -1.497,6.888 0,0 -3.144,-1.198 -4.267,0.449 -1.123,1.647 1.497,1.722 4.043,7.487 2.545,5.765 -4.841,47.565 0.224,58.246 1.469,3.619 8.966,18.674 15.712,34.913 4.153,-0.719 8.339,-1.278 10.104,-1.312 3.893,-0.075 16.052,3.905 25.036,3.756 l -0.055,0.109 c -8.984,0.15 -20.653,-2.796 -24.547,-2.721 -3.893,0.075 -19.069,2.537 -20.192,3.81 -1.123,1.273 -2.626,4.136 -2.776,5.933 -0.15,1.797 0.305,2.153 0.305,2.153 0.457,1.983 2.579,1.507 2.579,1.507 1.787,2.345 4.529,1.859 5.809,1.46 3.239,5.056 5.857,-3.15 20.619,0.786 13.217,3.525 17.585,16.451 31.211,13.307 6.139,-1.348 11.014,-6.419 11.014,-6.419 0,0 -1.481,5.099 -11.285,7.84 -13.626,3.144 -18.322,-9.625 -31.539,-13.15 -4.305,-1.148 -7.571,-1.26 -10.127,-0.973 4.163,12.118 6.733,22.816 6.406,25.466 -0.898,7.287 -8.456,19.472 -9.583,24.656 -0.764,3.513 -3.718,16.812 -5.326,30.365 -1.367,11.526 -0.919,22.936 -0.663,25.136 0.799,6.888 4.193,9.483 8.585,9.383 4.036,-0.092 6.988,-1.148 7.237,-11.08 0,0 6.88,1.562 15.367,-0.236 0.67,-0.142 1.363,0.05 1.842,0.539 1.281,1.307 4.502,3.881 10.891,5.188 0,0 3.793,3.993 11.779,2.995 7.986,-0.998 6.189,-3.594 5.79,-5.39 -1.198,-4.592 15.173,-13.177 18.168,-29.747 3.393,-19.767 -4.193,-63.289 -7.986,-76.266 z"
         id="path8" />
    </g>
    <path
       d="m 6.1207831,-22.220981 -3.782895,0.804298 -0.01576,2.431311 -0.01051,2.425171 4.15593,4.039906 4.1506769,4.0337655 2.474643,-0.521872 2.474644,-0.528012 0.241685,0.19033 c 0.961486,0.76132 3.183937,2.63392 4.549983,3.825017 4.597268,4.021487 8.049159,7.557939 10.171783,10.4190283 0.845898,1.141979 1.155885,1.645432 1.376554,2.240981 0.183891,0.485034 0.40456,1.209516 0.40456,1.32003 0,0.147352 -0.746071,-0.03684 -1.660271,-0.405219 -1.381801,-0.56485 -2.353795,-1.099001 -7.980851,-4.377588 C 18.346896,1.1527595 16.397653,0.07217653 14.816193,-0.70142247 12.441376,-1.8618205 10.350275,-2.6354195 8.7215291,-2.9546825 c -0.399305,-0.07982 -0.830135,-0.104374 -1.549935,-0.104374 -0.903692,0.0061 -1.045551,0.01842 -1.507905,0.165771 -1.544681,0.478894 -2.563961,1.69455 -2.95276,3.51189403 -0.415066,1.93399697 0.210161,4.03990527 1.896702,6.39140127 3.404605,4.7459682 11.7007039,10.6032172 21.4258969,15.1281572 5.485197,2.554105 10.476517,4.181119 14.501097,4.733689 0.898437,0.128935 2.868695,0.110514 3.572734,-0.0307 1.119106,-0.214889 1.933479,-0.626247 2.527183,-1.277051 0.80912,-0.890253 1.108598,-2.013815 1.056059,-3.947812 -0.0683,-2.25326 -0.698785,-4.788947 -2.106862,-8.49117 -0.929962,-2.431311 -1.728573,-4.2670732 -4.250504,-9.7743615 -3.315286,-7.232537 -4.523711,-10.283955 -5.085891,-12.862618 -0.157621,-0.7183415 -0.173383,-0.8841125 -0.178637,-1.6884105 0,-0.810437 0.01051,-0.914811 0.120843,-1.148119 0.194398,-0.423637 0.331003,-0.478895 1.245202,-0.478895 0.872168,0 1.203171,0.06754 2.41685,0.466616 2.007036,0.656945 4.371345,1.805064 7.697141,3.7452005 2.338039,1.369148 3.782894,2.27168 6.331096,3.96623 4.2505,2.83039 8.2278,5.679199 12.741,9.1235563 0.70929,0.540291 1.36079,1.019186 1.45537,1.068303 0.39405,0.19033 0.90369,0.03684 1.20842,-0.36838 0.34151,-0.454336 0.36253,-1.080583 0.0525,-1.596315 -0.23643,-0.3929403 -6.63583,-5.1511873 -11.07022,-8.2271643 -8.185768,-5.6791985 -14.474832,-9.2279305 -18.336537,-10.3576305 -1.182155,-0.343822 -1.486888,-0.392939 -2.52193,-0.399079 -0.877421,0 -1.008771,0.01228 -1.366045,0.141213 -0.556926,0.208749 -0.840643,0.392939 -1.192663,0.773599 -0.367781,0.399078 -0.651498,0.93937 -0.840643,1.602455 -0.13135,0.454336 -0.141858,0.570989 -0.141858,1.565617 -0.0053,1.080582 0.02627,1.4059845 0.23643,2.4251705 0.241685,1.160398 0.856406,3.112815 1.544682,4.91174 0.499132,1.301611 2.117371,5.009974 3.609513,8.2578623 1.870431,4.082883 2.679551,5.8940872 3.383589,7.5824982 1.42384,3.425938 2.238212,5.887947 2.653281,8.036834 0.152365,0.785878 0.168128,0.963929 0.173381,1.940136 0.0053,1.270914 -0.05779,1.596317 -0.378289,1.903301 -0.751325,0.72448 -2.67955,0.859554 -5.464181,0.392937 C 33.352338,23.077535 23.238349,18.589434 15.499176,13.419828 8.4115021,8.6799988 4.3501441,4.0936618 4.8335131,1.3492275 c 0.152368,-0.85955497 0.572689,-1.45510297 1.197918,-1.68841097 1.302997,-0.485034 3.64629,0.0307 6.8670049,1.51035997 2.180418,1.000767 3.246984,1.584036 9.010646,4.9424383 6.031615,3.511894 7.423931,4.2425152 9.015899,4.7336892 0.740817,0.227168 1.691795,0.306984 2.112116,0.178051 0.903692,-0.288565 1.42384,-1.0560242 1.471126,-2.1611662 0.03678,-0.822716 -0.147113,-1.651572 -0.662006,-2.965462 -0.704039,-1.811204 -3.546464,-5.31081927 -7.366137,-9.0621603 -2.117371,-2.08135 -5.264529,-4.89332 -7.607822,-6.808899 l -0.635737,-0.5218715 -0.0053,-2.240982 -0.0053,-2.240981 -4.071867,-3.96009 c -2.238213,-2.179584 -4.108644,-3.990788 -4.1611849,-4.027626 -0.0683,-0.04912 -1.003518,0.128934 -3.872214,0.7429 z"
       id="path1"
       style="stroke-width:0.00567961" />
  </g>
</svg>
